<?xml version="1.0" encoding="utf-8"?>
<!-- Generator: Adobe Illustrator 21.0.0, SVG Export Plug-In . SVG Version: 6.00 Build 0)  -->
<svg version="1.0" id="Capa_1" xmlns="http://www.w3.org/2000/svg" xmlns:xlink="http://www.w3.org/1999/xlink" x="0px" y="0px"
	 viewBox="0 0 135 140" enable-background="new 0 0 135 140" xml:space="preserve">
<g>
	<path fill="#EF3300" d="M97.1,33.1c-1.7,0.3-2.2-1.1-3.1-1.8c-11-8.7-23.1-12.1-36.8-8.1c-11.7,3.4-23,17-24.2,28.7
		c-0.2,2.1,1.3,2,2.4,2.4c11.6,4.6,23.7,6.2,36.1,5.8c9.1-0.3,17.9-1.8,26.6-4.2c1.4-0.4,2.9-1.4,4.7-0.6c-1,1.6-2.7,2-4.1,2.7
		C87,63,74.6,64.4,62,64c-10.5-0.4-20.8-2.2-30.5-6.3c-3.2-1.4-4.6-2.9-3.8-6.7c3.2-15.6,11.9-26.5,27.2-31.2
		c15.4-4.8,28.9-0.9,40.4,10.2C96.1,30.6,97.2,31.4,97.1,33.1z"/>
</g>
<g>
	<path fill="#EF3300" d="M9.1,51.5c8,10.2,19.4,13.5,31.1,15.8c21.3,4.2,42.5,3.7,63.4-3c7-2.2,13.4-5.6,19.1-11.6
		c-0.4,3.9-2.5,5.6-4.6,7.3c-5.5,4.4-12,7-18.8,8.8c-25.3,6.4-50.4,6.2-75.1-3.1c-4.6-1.7-8.9-4.2-12.3-8
		C10.4,56.1,9.1,54.3,9.1,51.5z"/>
</g>
<g>
	<path fill="#EF3300" d="M66.6,16c-2-0.2-3.5-1.6-3.4-4.1c0.1-2.7,1.7-4.2,4.4-4c2.6,0.2,3.9,1.8,3.8,4.3
		C71.3,14.6,69.8,16.1,66.6,16z"/>
</g>
<g>
	<path fill="#A5A5A5" d="M16.1,87.3h6l3.3,26.3L40,87.3h6l-6.6,31.1h-4l3.9-18.4c0.1-0.6,0.4-1.7,0.7-3.2c0.3-1.5,0.7-3,1-4.7
		l-14.4,26.2h-4.2L19,92.2l-0.2,1c-0.2,0.8-0.4,1.9-0.7,3.5c-0.3,1.6-0.5,2.7-0.7,3.4l-3.9,18.4h-4L16.1,87.3z"/>
	<path fill="#A5A5A5" d="M52.8,87.3h22.7l-0.8,3.8H56l-2,9.4h17.2l-0.8,3.6H53.3L51,114.7h18.9l-0.8,3.7h-23L52.8,87.3z"/>
	<path fill="#A5A5A5" d="M81.3,87.3h4.2l-5.8,27.4h15.7l-0.8,3.7h-20L81.3,87.3z"/>
	<path fill="#A5A5A5" d="M105.8,87.3h14c2.8,0,4.8,0.8,6.2,2.3c1.4,1.6,1.7,3.8,1.1,6.6c-0.5,2.4-1.7,4.5-3.6,6.3
		c-1.9,1.8-4.4,2.7-7.5,2.7h-9.8l-2.8,13.1h-4.2L105.8,87.3z M121.3,91.6c-0.8-0.4-2.1-0.7-3.7-0.7h-8.4l-2.3,10.8h8.4
		c1.9,0,3.5-0.4,4.9-1.2c1.3-0.8,2.2-2.2,2.7-4.2C123.3,94,122.8,92.4,121.3,91.6z"/>
</g>
</svg>
