<?xml version="1.0" encoding="utf-8"?>
<!-- Generator: Adobe Illustrator 21.0.0, SVG Export Plug-In . SVG Version: 6.00 Build 0)  -->
<svg version="1.0" xmlns="http://www.w3.org/2000/svg" xmlns:xlink="http://www.w3.org/1999/xlink" x="0px" y="0px"
	 viewBox="0 0 519.5 428.9" enable-background="new 0 0 519.5 428.9" xml:space="preserve">

<g id="Objects">
	
		<radialGradient id="SVGID_1_" cx="240.0353" cy="309.3394" r="100.1165" gradientTransform="matrix(2.4575 0 0 0.2892 -330.1357 295.5736)" gradientUnits="userSpaceOnUse">
		<stop  offset="4.950500e-03" style="stop-color:#000000"/>
		<stop  offset="1" style="stop-color:#FFFFFF;stop-opacity:0"/>
	</radialGradient>
	<ellipse opacity="0.26" fill="url(#SVGID_1_)" cx="259.7" cy="385" rx="246" ry="29"/>
	<g>
		<path fill="#066C62" d="M264.6,154.4c-0.2-2.9-0.5-5.7-0.8-8.6c-0.2-1.3-0.3-2.7-0.5-4c-0.1-0.5-0.1-1-0.2-1.5
			c-0.7-4.8-1.6-9.7-2.7-14.4c-0.3-1.4-0.7-2.7-1-4.1c0,0.2-0.1,0.3-0.2,0.4c-2.2,6.8-3.9,13.7-5.4,20.7c-3.4,15.9-5.4,32-8.6,47.9
			c-1.6,8.1-3.3,16.3-6.3,24c-2.8,6.9-6.2,13.7-13.8,16.2c-14.6,4.7-21.4-12.9-24.7-23.4c-3.9-12.3-6.5-24.9-9.6-37.5
			c-0.6-2.4-1.2-4.8-1.8-7.1c-3.4,16.5-5.2,33.6-11.6,49.2c0,0.1-0.1,0.2-0.1,0.4l56.2,32.6c5.8,3.4,13.8,4.8,21.4,4.4
			c0.2-0.5,0.5-0.9,0.7-1.4c0.2-0.4,0.4-0.8,0.6-1.2c0.8-2.1,1.6-4.2,2.3-6.3c1.6-5.1,2.8-10.3,3.8-15.5c0.5-2.8,1-5.6,1.4-8.5
			c0,0,0,0,0,0c0.1-0.6,0.2-1.2,0.2-1.8c0.2-1.5,0.3-3,0.5-4.5c0.6-6.1,1-12.3,1.2-18.4C265.9,179.3,265.6,166.8,264.6,154.4z"/>
		<path fill="#066C62" d="M289.8,192.6c-0.5,14.4-1.6,29.8-5.1,44.4l44.2-25.7c10.3-5.9,18.5-20.5,18.5-32.4v-3.5L274.9,97
			c4.7,6.2,7.1,14.8,8.8,22.4C289.2,143.1,290.7,168.3,289.8,192.6z"/>
		<path fill="#00A69C" d="M329,78.7l-58.4-33.9c-10.3-5.9-27-5.9-37.2,0l-57.9,33.9c-10.3,5.9-18,20.5-18,32.3v67.9
			c0,3.7,0.2,7.6,1.7,11.5c2.5-10.1,3.8-20.4,5.9-30.6c1.6-7.7,3-15.7,6.1-23c2.6-6.2,6.2-14,13.7-15.4c8-1.6,14.5,2.4,18.5,9.2
			l23.4,24.9c2.1-12.2,4.4-24.4,7.9-36.3c2.6-8.6,5.8-20.4,13.2-26.3c9.6-7.7,19.9-5.3,27.1,4.1l72.5,78.4V111
			C347.4,99.2,339.2,84.6,329,78.7z"/>
		<path fill="#066C62" d="M214.2,163.7c2.1,8.7,4.1,17.5,6.4,26.2c1.5-6.8,2.7-13.7,3.9-20.5c0.8-4.6,1.5-9.2,2.3-13.8l-23.5-24.9
			C209.1,140.4,211.5,152.7,214.2,163.7z"/>
	</g>
	<g>
		<path fill="#00A69C" d="M190.9,303.5l0,2.7v27.1h-2.4v-27.2c0-6.7-1.2-11.5-3.5-14.4c-2.3-2.9-5.8-4.4-10.3-4.4s-8.1,1.4-10.7,4.1
			c-2.6,2.7-4.3,6.5-5.1,11.4v30.5h-2.4v-47.6h2l0.3,9.8c3-7.1,8.4-10.7,16-10.7c8.3,0,13.4,4.3,15.3,12.8c1.3-4.1,3.4-7.3,6.2-9.5
			c2.8-2.2,6.4-3.3,10.7-3.3c5.3,0,9.3,1.7,12,5.2c2.7,3.5,4,8.8,4,16.1v27.1h-2.4v-27.2c0-6.6-1.2-11.4-3.5-14.4
			c-2.3-3-5.8-4.4-10.4-4.4c-4.6,0-8.3,1.4-10.9,4.3C193.2,294.5,191.6,298.4,190.9,303.5z"/>
		<path fill="#00A69C" d="M253.9,334.3c-5.5,0-10.2-2.2-14.1-6.6c-3.9-4.4-5.8-9.8-5.8-16.3v-2.8c0-6.8,1.9-12.4,5.7-16.9
			c3.8-4.5,8.5-6.7,14-6.7c5.5,0,10,1.8,13.3,5.3c3.4,3.5,5,8.2,5,14.2v3.7h-35.6v3.4c0,5.8,1.7,10.7,5.1,14.6
			c3.4,3.9,7.5,5.9,12.5,5.9c3.5,0,6.5-0.5,8.9-1.4c2.4-0.9,4.5-2.4,6.2-4.3l1.3,1.8C266.4,332.2,261,334.3,253.9,334.3z
			 M269.6,304.2L269.6,304.2c0-4.9-1.5-8.9-4.4-12.1s-6.7-4.8-11.4-4.8s-8.6,1.7-11.7,5.1c-3.1,3.4-4.9,7.7-5.3,13l0.1,0.2h32.8
			V304.2z"/>
		<path fill="#00A69C" d="M286,264.8v68.6h-2.3v-68.6H286z"/>
		<path fill="#00A69C" d="M338,311.5v0.9c0,7.4-1.6,13.2-4.7,17.5c-3.2,4.2-7.5,6.4-13.1,6.4c-3.7,0-7-0.7-9.7-2.2
			c-2.8-1.4-4.9-3.5-6.5-6.1v25.7h-2.4v-65.8h1.9l0.5,8.5c3.3-6.2,8.7-9.4,16.2-9.4c5.6,0,10,2.2,13.2,6.6S338,303.9,338,311.5z
			 M335.6,312.5v-0.9c0-6.8-1.4-12.2-4.1-16.2c-2.7-4-6.5-6-11.4-6c-4.4,0-7.9,1.1-10.5,3.2c-2.6,2.2-4.5,5.1-5.7,8.8v22.2
			c1.2,3.3,3.2,5.8,6,7.7c2.8,1.8,6.2,2.7,10.3,2.7c4.9,0,8.7-1.9,11.4-5.7C334.2,324.4,335.6,319.1,335.6,312.5z"/>
	</g>
</g>
</svg>
